<svg width="1024" height="1054" viewBox="0 0 1024 1054" fill="none" xmlns="http://www.w3.org/2000/svg">
<rect y="30" width="1024" height="1024" fill="white"/>
<path d="M177.443 436.84C184.355 435.112 190.403 434.536 196.163 434.536C221.507 434.536 235.907 449.224 235.907 475.432C235.907 503.368 217.475 519.496 188.675 519.496H176.291V532.456H190.979C224.963 532.456 241.667 551.176 241.667 580.552C241.667 609.064 224.099 629.512 192.995 629.512C186.371 629.512 179.459 628.648 172.259 626.344L166.787 608.488C163.043 595.816 159.875 590.056 151.235 590.056C145.187 590.056 140.579 593.224 137.699 598.984C144.035 628.36 166.787 641.032 196.451 641.032C237.059 641.032 264.995 615.976 264.995 581.704C264.995 552.904 248.579 532.168 215.171 526.12C242.819 517.48 258.371 497.896 258.371 473.992C258.371 443.176 235.907 422.728 200.483 422.728C173.123 422.728 149.219 435.112 142.883 461.608C145.475 469.096 150.371 471.688 156.419 471.688C165.635 471.688 169.091 466.504 171.971 454.696L177.443 436.84ZM316.565 530.152C316.565 455.56 336.437 434.536 357.173 434.536C377.333 434.536 396.917 455.56 396.917 530.152C396.917 608.2 377.333 629.512 357.173 629.512C336.437 629.512 316.565 608.488 316.565 530.152ZM357.173 422.728C324.341 422.728 292.661 452.104 292.661 530.152C292.661 611.656 324.341 641.032 357.173 641.032C389.717 641.032 420.821 611.656 420.821 530.152C420.821 452.104 389.717 422.728 357.173 422.728ZM471.815 530.152C471.815 455.56 491.687 434.536 512.423 434.536C532.583 434.536 552.167 455.56 552.167 530.152C552.167 608.2 532.583 629.512 512.423 629.512C491.687 629.512 471.815 608.488 471.815 530.152ZM512.423 422.728C479.591 422.728 447.911 452.104 447.911 530.152C447.911 611.656 479.591 641.032 512.423 641.032C544.967 641.032 576.071 611.656 576.071 530.152C576.071 452.104 544.967 422.728 512.423 422.728ZM627.065 530.152C627.065 455.56 646.937 434.536 667.673 434.536C687.833 434.536 707.417 455.56 707.417 530.152C707.417 608.2 687.833 629.512 667.673 629.512C646.937 629.512 627.065 608.488 627.065 530.152ZM667.673 422.728C634.841 422.728 603.161 452.104 603.161 530.152C603.161 611.656 634.841 641.032 667.673 641.032C700.217 641.032 731.321 611.656 731.321 530.152C731.321 452.104 700.217 422.728 667.673 422.728ZM782.315 530.152C782.315 455.56 802.187 434.536 822.923 434.536C843.083 434.536 862.667 455.56 862.667 530.152C862.667 608.2 843.083 629.512 822.923 629.512C802.187 629.512 782.315 608.488 782.315 530.152ZM822.923 422.728C790.091 422.728 758.411 452.104 758.411 530.152C758.411 611.656 790.091 641.032 822.923 641.032C855.467 641.032 886.571 611.656 886.571 530.152C886.571 452.104 855.467 422.728 822.923 422.728Z" fill="#424242"/>
</svg>
